<?xml version="1.0" standalone="no"?>
<!DOCTYPE svg PUBLIC "-//W3C//DTD SVG 20010904//EN"
 "http://www.w3.org/TR/2001/REC-SVG-20010904/DTD/svg10.dtd">
<svg version="1.0" xmlns="http://www.w3.org/2000/svg"
 width="1000.000000pt" height="1000.000000pt" viewBox="0 0 1000.000000 1000.000000"
 preserveAspectRatio="xMidYMid meet">
<metadata>
Created by potrace 1.14, written by Peter Selinger 2001-2017
</metadata>
<g transform="translate(0.000000,1000.000000) scale(0.100000,-0.100000)"
fill="#000000" stroke="none">
<path d="M4954 9618 c-40 -22 -314 -181 -344 -199 -18 -10 -230 -133 -278
-161 -130 -73 -183 -104 -302 -173 -74 -43 -200 -116 -280 -162 -80 -46 -152
-88 -160 -93 -8 -6 -26 -16 -40 -23 -14 -7 -56 -31 -95 -53 -38 -23 -86 -51
-105 -62 -42 -23 -285 -164 -775 -447 -198 -114 -373 -216 -390 -225 -62 -36
-231 -134 -260 -151 -16 -11 -37 -22 -45 -26 -8 -4 -58 -32 -110 -63 -52 -31
-102 -59 -110 -63 -8 -4 -24 -13 -35 -20 -97 -59 -271 -158 -312 -179 -13 -6
-23 -14 -23 -17 0 -4 21 -18 48 -32 26 -14 236 -135 467 -269 231 -134 476
-275 545 -315 69 -40 346 -199 615 -355 270 -156 549 -317 620 -358 72 -41
213 -123 315 -182 102 -59 208 -120 235 -135 28 -15 62 -36 77 -46 14 -11 28
-19 31 -19 2 0 54 -29 115 -64 61 -36 131 -76 154 -89 24 -13 141 -81 261
-151 120 -69 222 -126 227 -126 7 0 84 43 355 200 17 10 145 83 285 164 140
80 262 150 270 155 8 5 98 58 200 117 167 96 214 124 356 205 46 26 440 255
464 269 23 14 487 281 820 473 19 11 49 28 65 38 17 11 37 22 45 26 8 4 107
61 220 126 113 65 223 129 245 142 22 12 79 45 127 74 48 28 91 51 97 51 6 0
11 4 11 9 0 5 6 11 13 13 18 5 137 72 137 78 0 3 -17 14 -37 25 -21 11 -62 34
-91 52 -29 18 -54 33 -57 33 -3 0 -34 18 -70 40 -36 22 -70 40 -75 40 -6 0
-10 5 -10 12 0 6 -3 8 -7 5 -3 -4 -13 -1 -22 6 -9 8 -86 53 -171 102 -85 48
-202 116 -260 150 -58 34 -125 73 -150 87 -40 22 -72 41 -205 118 -234 135
-395 228 -513 297 -78 45 -145 83 -147 83 -3 0 -47 25 -98 56 -50 30 -99 59
-107 64 -26 14 -457 263 -625 360 -88 51 -178 103 -200 115 -22 13 -80 46
-130 75 -49 29 -106 62 -125 72 -19 11 -75 44 -125 73 -221 129 -477 275 -483
275 -4 0 -26 -10 -48 -22z m96 -1078 c28 -16 52 -30 54 -30 2 0 34 -18 71 -41
66 -40 95 -57 185 -107 25 -14 62 -36 82 -49 21 -12 40 -23 42 -23 3 0 46 -25
96 -55 50 -30 93 -55 96 -55 2 0 21 -11 42 -24 20 -12 188 -110 372 -216 184
-106 394 -227 465 -269 72 -42 142 -83 157 -91 15 -8 53 -30 84 -48 l57 -34
-54 -31 c-30 -17 -56 -32 -59 -32 -3 0 -16 -8 -30 -16 -26 -17 -188 -112 -252
-147 -87 -49 -514 -295 -523 -302 -9 -7 -54 -32 -150 -85 -22 -13 -92 -53
-155 -90 -107 -63 -440 -255 -573 -331 l-57 -33 -228 131 c-125 72 -240 139
-257 148 -16 10 -113 66 -215 125 -102 59 -306 177 -455 262 -148 86 -322 186
-385 223 -63 37 -159 93 -213 124 l-98 57 183 106 c101 58 198 114 216 124
114 66 758 437 812 469 36 21 153 88 260 150 295 170 333 192 355 206 11 7 21
13 22 13 1 1 25 -12 53 -29z"/>
<path d="M979 6959 c-1 -5 -1 -4215 0 -4257 1 -21 7 -35 19 -39 9 -4 82 -45
162 -91 80 -46 163 -94 185 -107 22 -12 110 -63 195 -112 85 -49 304 -176 485
-280 614 -355 972 -562 1006 -582 19 -12 41 -24 49 -28 8 -4 78 -44 155 -88
116 -68 256 -149 563 -326 17 -11 49 -28 70 -40 20 -12 93 -54 162 -94 170
-98 447 -258 490 -282 19 -11 63 -37 98 -58 35 -20 66 -34 69 -31 6 5 8 4275
2 4280 -5 4 -564 328 -629 364 -25 14 -99 57 -165 95 -108 63 -190 110 -287
165 -18 11 -120 70 -226 131 -106 61 -209 121 -230 133 -20 11 -50 29 -67 39
-16 11 -37 22 -45 26 -8 4 -132 75 -275 158 -143 83 -305 177 -360 209 -55 31
-107 61 -115 66 -15 10 -79 46 -161 92 -24 14 -186 108 -359 208 -173 101
-340 196 -370 213 -30 17 -83 48 -118 69 -34 21 -64 38 -66 38 -2 0 -50 27
-107 61 -102 61 -128 74 -130 68z m981 -1634 c8 -7 58 -36 110 -65 52 -29 106
-61 120 -71 14 -9 27 -17 30 -16 3 0 23 -11 45 -24 22 -14 90 -53 150 -88
l110 -62 0 -1070 c0 -588 0 -1069 -1 -1069 -2 0 -609 353 -612 355 -3 3 -5
2063 -3 2122 1 14 27 7 51 -12z m1457 -841 c83 -47 338 -196 342 -200 9 -8 4
-2129 -5 -2129 -7 0 -69 34 -154 85 -52 31 -308 177 -320 183 -8 4 -33 18 -55
32 -22 14 -49 29 -60 34 -20 9 -20 17 -19 1072 1 585 2 1067 3 1071 0 3 52
-23 114 -59 61 -36 131 -76 154 -89z"/>
<path d="M8660 6759 c-190 -110 -406 -235 -480 -278 -74 -43 -180 -104 -235
-136 -55 -32 -116 -67 -135 -78 -19 -10 -107 -61 -195 -112 -505 -292 -720
-417 -835 -483 -52 -30 -108 -62 -125 -72 -16 -9 -133 -77 -260 -150 -277
-160 -288 -166 -345 -198 -25 -14 -74 -42 -109 -64 -34 -21 -64 -38 -66 -38
-1 0 -74 -42 -161 -93 -87 -51 -166 -96 -174 -100 -8 -4 -24 -13 -35 -20 -11
-7 -58 -34 -105 -61 -47 -27 -87 -50 -89 -52 -2 -2 -4 -966 -5 -2144 -1 -1563
2 -2140 10 -2140 6 0 28 11 48 25 20 14 39 25 41 25 2 0 68 38 147 84 79 46
175 101 213 123 39 22 142 81 230 133 88 51 176 101 195 112 69 40 195 113
211 123 9 6 36 21 60 34 24 13 69 38 99 56 55 33 827 479 865 499 11 6 31 19
45 28 14 9 45 27 70 40 25 13 56 31 70 39 25 16 249 146 325 189 112 63 161
92 175 100 8 5 40 24 70 41 30 18 125 72 210 122 85 49 175 101 200 115 80 45
425 244 429 248 3 3 5 4200 2 4267 -1 9 -4 17 -8 16 -5 0 -163 -90 -353 -200z
m-567 -2421 c-1 -557 -2 -1038 -3 -1069 l0 -57 -112 -63 c-62 -35 -122 -69
-133 -75 -11 -6 -60 -35 -110 -64 -99 -58 -123 -72 -205 -118 l-55 -31 0 1069
0 1069 119 68 c65 37 134 78 155 90 20 12 59 34 86 49 28 14 62 35 77 45 14
11 28 19 31 19 3 0 36 18 73 40 38 22 71 40 74 40 3 0 4 -456 3 -1012z m-1238
-765 l1 -1068 -33 -22 c-17 -13 -34 -23 -37 -23 -5 0 -299 -169 -455 -262 -46
-27 -86 -47 -89 -44 -6 7 -7 2124 -1 2130 2 2 141 83 309 180 168 97 305 176
305 176 0 0 0 -480 0 -1067z"/>
</g>
</svg>
